<?xml version="1.0" encoding="utf-8"?>
<svg xmlns="http://www.w3.org/2000/svg" xmlns:xlink="http://www.w3.org/1999/xlink" width="600" height="400" viewBox="0 0 2400 1600">
<defs>
  <clipPath id="clip340">
    <rect x="0" y="0" width="2400" height="1600"/>
  </clipPath>
</defs>
<path clip-path="url(#clip340)" d="
M0 1600 L2400 1600 L2400 0 L0 0  Z
  " fill="#ffffff" fill-rule="evenodd" fill-opacity="1"/>
<defs>
  <clipPath id="clip341">
    <rect x="480" y="0" width="1681" height="1600"/>
  </clipPath>
</defs>
<path clip-path="url(#clip340)" d="
M252.764 1410.9 L2352.76 1410.9 L2352.76 47.2441 L252.764 47.2441  Z
  " fill="#ffffff" fill-rule="evenodd" fill-opacity="1"/>
<defs>
  <clipPath id="clip342">
    <rect x="252" y="47" width="2101" height="1365"/>
  </clipPath>
</defs>
<polyline clip-path="url(#clip342)" style="stroke:#000000; stroke-linecap:round; stroke-linejoin:round; stroke-width:2; stroke-opacity:0.1; fill:none" points="
  552.952,1410.9 552.952,47.2441 
  "/>
<polyline clip-path="url(#clip342)" style="stroke:#000000; stroke-linecap:round; stroke-linejoin:round; stroke-width:2; stroke-opacity:0.1; fill:none" points="
  1352.72,1410.9 1352.72,47.2441 
  "/>
<polyline clip-path="url(#clip342)" style="stroke:#000000; stroke-linecap:round; stroke-linejoin:round; stroke-width:2; stroke-opacity:0.1; fill:none" points="
  2152.49,1410.9 2152.49,47.2441 
  "/>
<polyline clip-path="url(#clip340)" style="stroke:#000000; stroke-linecap:round; stroke-linejoin:round; stroke-width:4; stroke-opacity:1; fill:none" points="
  252.764,1410.9 2352.76,1410.9 
  "/>
<polyline clip-path="url(#clip340)" style="stroke:#000000; stroke-linecap:round; stroke-linejoin:round; stroke-width:4; stroke-opacity:1; fill:none" points="
  552.952,1410.9 552.952,1392 
  "/>
<polyline clip-path="url(#clip340)" style="stroke:#000000; stroke-linecap:round; stroke-linejoin:round; stroke-width:4; stroke-opacity:1; fill:none" points="
  1352.72,1410.9 1352.72,1392 
  "/>
<polyline clip-path="url(#clip340)" style="stroke:#000000; stroke-linecap:round; stroke-linejoin:round; stroke-width:4; stroke-opacity:1; fill:none" points="
  2152.49,1410.9 2152.49,1392 
  "/>
<path clip-path="url(#clip340)" d="M503.218 1485.02 L510.857 1485.02 L510.857 1458.66 L502.547 1460.32 L502.547 1456.06 L510.81 1454.4 L515.486 1454.4 L515.486 1485.02 L523.125 1485.02 L523.125 1488.96 L503.218 1488.96 L503.218 1485.02 Z" fill="#000000" fill-rule="evenodd" fill-opacity="1" /><path clip-path="url(#clip340)" d="M542.569 1457.48 Q538.958 1457.48 537.13 1461.04 Q535.324 1464.58 535.324 1471.71 Q535.324 1478.82 537.13 1482.38 Q538.958 1485.92 542.569 1485.92 Q546.204 1485.92 548.009 1482.38 Q549.838 1478.82 549.838 1471.71 Q549.838 1464.58 548.009 1461.04 Q546.204 1457.48 542.569 1457.48 M542.569 1453.77 Q548.38 1453.77 551.435 1458.38 Q554.514 1462.96 554.514 1471.71 Q554.514 1480.44 551.435 1485.04 Q548.38 1489.63 542.569 1489.63 Q536.759 1489.63 533.681 1485.04 Q530.625 1480.44 530.625 1471.71 Q530.625 1462.96 533.681 1458.38 Q536.759 1453.77 542.569 1453.77 Z" fill="#000000" fill-rule="evenodd" fill-opacity="1" /><path clip-path="url(#clip340)" d="M554.514 1447.87 L578.625 1447.87 L578.625 1451.07 L554.514 1451.07 L554.514 1447.87 Z" fill="#000000" fill-rule="evenodd" fill-opacity="1" /><path clip-path="url(#clip340)" d="M590.098 1458.35 L603.358 1458.35 L603.358 1461.55 L585.528 1461.55 L585.528 1458.35 Q587.691 1456.11 591.415 1452.35 Q595.157 1448.57 596.117 1447.48 Q597.941 1445.43 598.656 1444.02 Q599.389 1442.59 599.389 1441.22 Q599.389 1438.98 597.809 1437.57 Q596.248 1436.16 593.728 1436.16 Q591.941 1436.16 589.948 1436.78 Q587.973 1437.4 585.716 1438.66 L585.716 1434.82 Q588.011 1433.9 590.004 1433.43 Q591.998 1432.96 593.653 1432.96 Q598.016 1432.96 600.612 1435.14 Q603.207 1437.32 603.207 1440.97 Q603.207 1442.7 602.549 1444.26 Q601.909 1445.8 600.198 1447.91 Q599.728 1448.46 597.208 1451.07 Q594.687 1453.67 590.098 1458.35 Z" fill="#000000" fill-rule="evenodd" fill-opacity="1" /><path clip-path="url(#clip340)" d="M1302.84 1485.02 L1310.48 1485.02 L1310.48 1458.66 L1302.16 1460.32 L1302.16 1456.06 L1310.43 1454.4 L1315.1 1454.4 L1315.1 1485.02 L1322.74 1485.02 L1322.74 1488.96 L1302.84 1488.96 L1302.84 1485.02 Z" fill="#000000" fill-rule="evenodd" fill-opacity="1" /><path clip-path="url(#clip340)" d="M1342.19 1457.48 Q1338.58 1457.48 1336.75 1461.04 Q1334.94 1464.58 1334.94 1471.71 Q1334.94 1478.82 1336.75 1482.38 Q1338.58 1485.92 1342.19 1485.92 Q1345.82 1485.92 1347.63 1482.38 Q1349.46 1478.82 1349.46 1471.71 Q1349.46 1464.58 1347.63 1461.04 Q1345.82 1457.48 1342.19 1457.48 M1342.19 1453.77 Q1348 1453.77 1351.05 1458.38 Q1354.13 1462.96 1354.13 1471.71 Q1354.13 1480.44 1351.05 1485.04 Q1348 1489.63 1342.19 1489.63 Q1336.38 1489.63 1333.3 1485.04 Q1330.24 1480.44 1330.24 1471.71 Q1330.24 1462.96 1333.3 1458.38 Q1336.38 1453.77 1342.19 1453.77 Z" fill="#000000" fill-rule="evenodd" fill-opacity="1" /><path clip-path="url(#clip340)" d="M1354.13 1447.87 L1378.24 1447.87 L1378.24 1451.07 L1354.13 1451.07 L1354.13 1447.87 Z" fill="#000000" fill-rule="evenodd" fill-opacity="1" /><path clip-path="url(#clip340)" d="M1387.1 1458.35 L1393.31 1458.35 L1393.31 1436.93 L1386.56 1438.28 L1386.56 1434.82 L1393.27 1433.47 L1397.07 1433.47 L1397.07 1458.35 L1403.28 1458.35 L1403.28 1461.55 L1387.1 1461.55 L1387.1 1458.35 Z" fill="#000000" fill-rule="evenodd" fill-opacity="1" /><path clip-path="url(#clip340)" d="M2117.47 1485.02 L2125.11 1485.02 L2125.11 1458.66 L2116.8 1460.32 L2116.8 1456.06 L2125.07 1454.4 L2129.74 1454.4 L2129.74 1485.02 L2137.38 1485.02 L2137.38 1488.96 L2117.47 1488.96 L2117.47 1485.02 Z" fill="#000000" fill-rule="evenodd" fill-opacity="1" /><path clip-path="url(#clip340)" d="M2156.82 1457.48 Q2153.21 1457.48 2151.38 1461.04 Q2149.58 1464.58 2149.58 1471.71 Q2149.58 1478.82 2151.38 1482.38 Q2153.21 1485.92 2156.82 1485.92 Q2160.46 1485.92 2162.26 1482.38 Q2164.09 1478.82 2164.09 1471.71 Q2164.09 1464.58 2162.26 1461.04 Q2160.46 1457.48 2156.82 1457.48 M2156.82 1453.77 Q2162.63 1453.77 2165.69 1458.38 Q2168.77 1462.96 2168.77 1471.71 Q2168.77 1480.44 2165.69 1485.04 Q2162.63 1489.63 2156.82 1489.63 Q2151.01 1489.63 2147.94 1485.04 Q2144.88 1480.44 2144.88 1471.71 Q2144.88 1462.96 2147.94 1458.38 Q2151.01 1453.77 2156.82 1453.77 Z" fill="#000000" fill-rule="evenodd" fill-opacity="1" /><path clip-path="url(#clip340)" d="M2178.47 1435.97 Q2175.54 1435.97 2174.05 1438.86 Q2172.59 1441.74 2172.59 1447.53 Q2172.59 1453.31 2174.05 1456.2 Q2175.54 1459.08 2178.47 1459.08 Q2181.43 1459.08 2182.89 1456.2 Q2184.38 1453.31 2184.38 1447.53 Q2184.38 1441.74 2182.89 1438.86 Q2181.43 1435.97 2178.47 1435.97 M2178.47 1432.96 Q2183.19 1432.96 2185.68 1436.7 Q2188.18 1440.43 2188.18 1447.53 Q2188.18 1454.62 2185.68 1458.37 Q2183.19 1462.09 2178.47 1462.09 Q2173.75 1462.09 2171.25 1458.37 Q2168.77 1454.62 2168.77 1447.53 Q2168.77 1440.43 2171.25 1436.7 Q2173.75 1432.96 2178.47 1432.96 Z" fill="#000000" fill-rule="evenodd" fill-opacity="1" /><path clip-path="url(#clip340)" d="M1204.86 1539.91 L1204.86 1545.38 Q1202.37 1544.01 1199.86 1543.34 Q1197.38 1542.64 1194.83 1542.64 Q1189.13 1542.64 1185.98 1546.27 Q1182.83 1549.87 1182.83 1556.39 Q1182.83 1562.92 1185.98 1566.55 Q1189.13 1570.14 1194.83 1570.14 Q1197.38 1570.14 1199.86 1569.47 Q1202.37 1568.77 1204.86 1567.41 L1204.86 1572.82 Q1202.4 1573.96 1199.76 1574.54 Q1197.15 1575.11 1194.19 1575.11 Q1186.14 1575.11 1181.4 1570.05 Q1176.66 1564.99 1176.66 1556.39 Q1176.66 1547.67 1181.43 1542.68 Q1186.24 1537.68 1194.57 1537.68 Q1197.28 1537.68 1199.86 1538.25 Q1202.44 1538.79 1204.86 1539.91 Z" fill="#000000" fill-rule="evenodd" fill-opacity="1" /><path clip-path="url(#clip340)" d="M1245.53 1554.9 L1245.53 1557.76 L1218.61 1557.76 Q1218.99 1563.81 1222.23 1566.99 Q1225.51 1570.14 1231.34 1570.14 Q1234.71 1570.14 1237.86 1569.32 Q1241.04 1568.49 1244.16 1566.83 L1244.16 1572.37 Q1241.01 1573.71 1237.7 1574.41 Q1234.39 1575.11 1230.99 1575.11 Q1222.46 1575.11 1217.46 1570.14 Q1212.49 1565.18 1212.49 1556.71 Q1212.49 1547.96 1217.2 1542.83 Q1221.95 1537.68 1229.97 1537.68 Q1237.16 1537.68 1241.33 1542.33 Q1245.53 1546.94 1245.53 1554.9 M1239.68 1553.18 Q1239.61 1548.37 1236.97 1545.51 Q1234.36 1542.64 1230.03 1542.64 Q1225.13 1542.64 1222.17 1545.41 Q1219.24 1548.18 1218.8 1553.21 L1239.68 1553.18 Z" fill="#000000" fill-rule="evenodd" fill-opacity="1" /><path clip-path="url(#clip340)" d="M1255.14 1524.66 L1261 1524.66 L1261 1574.19 L1255.14 1574.19 L1255.14 1524.66 Z" fill="#000000" fill-rule="evenodd" fill-opacity="1" /><path clip-path="url(#clip340)" d="M1273.25 1524.66 L1279.11 1524.66 L1279.11 1574.19 L1273.25 1574.19 L1273.25 1524.66 Z" fill="#000000" fill-rule="evenodd" fill-opacity="1" /><path clip-path="url(#clip340)" d="M1334.81 1539.59 L1334.81 1545.13 Q1332.33 1543.85 1329.66 1543.22 Q1326.98 1542.58 1324.12 1542.58 Q1319.76 1542.58 1317.56 1543.92 Q1315.4 1545.25 1315.4 1547.93 Q1315.4 1549.96 1316.96 1551.14 Q1318.52 1552.29 1323.23 1553.34 L1325.23 1553.78 Q1331.47 1555.12 1334.08 1557.57 Q1336.72 1559.99 1336.72 1564.35 Q1336.72 1569.32 1332.77 1572.21 Q1328.86 1575.11 1321.98 1575.11 Q1319.12 1575.11 1316 1574.54 Q1312.91 1573.99 1309.48 1572.88 L1309.48 1566.83 Q1312.72 1568.52 1315.87 1569.38 Q1319.02 1570.21 1322.11 1570.21 Q1326.25 1570.21 1328.48 1568.81 Q1330.71 1567.37 1330.71 1564.8 Q1330.71 1562.41 1329.08 1561.14 Q1327.49 1559.86 1322.05 1558.68 L1320.01 1558.21 Q1314.57 1557.06 1312.15 1554.71 Q1309.73 1552.32 1309.73 1548.18 Q1309.73 1543.15 1313.3 1540.42 Q1316.86 1537.68 1323.42 1537.68 Q1326.66 1537.68 1329.53 1538.16 Q1332.39 1538.63 1334.81 1539.59 Z" fill="#000000" fill-rule="evenodd" fill-opacity="1" /><path clip-path="url(#clip340)" d="M1346.05 1538.54 L1351.9 1538.54 L1351.9 1574.19 L1346.05 1574.19 L1346.05 1538.54 M1346.05 1524.66 L1351.9 1524.66 L1351.9 1532.08 L1346.05 1532.08 L1346.05 1524.66 Z" fill="#000000" fill-rule="evenodd" fill-opacity="1" /><path clip-path="url(#clip340)" d="M1361.61 1538.54 L1389.43 1538.54 L1389.43 1543.88 L1367.4 1569.51 L1389.43 1569.51 L1389.43 1574.19 L1360.82 1574.19 L1360.82 1568.84 L1382.84 1543.22 L1361.61 1543.22 L1361.61 1538.54 Z" fill="#000000" fill-rule="evenodd" fill-opacity="1" /><path clip-path="url(#clip340)" d="M1428.86 1554.9 L1428.86 1557.76 L1401.94 1557.76 Q1402.32 1563.81 1405.57 1566.99 Q1408.84 1570.14 1414.67 1570.14 Q1418.04 1570.14 1421.19 1569.32 Q1424.38 1568.49 1427.5 1566.83 L1427.5 1572.37 Q1424.34 1573.71 1421.03 1574.41 Q1417.72 1575.11 1414.32 1575.11 Q1405.79 1575.11 1400.79 1570.14 Q1395.83 1565.18 1395.83 1556.71 Q1395.83 1547.96 1400.54 1542.83 Q1405.28 1537.68 1413.3 1537.68 Q1420.49 1537.68 1424.66 1542.33 Q1428.86 1546.94 1428.86 1554.9 M1423.01 1553.18 Q1422.94 1548.37 1420.3 1545.51 Q1417.69 1542.64 1413.36 1542.64 Q1408.46 1542.64 1405.5 1545.41 Q1402.57 1548.18 1402.13 1553.21 L1423.01 1553.18 Z" fill="#000000" fill-rule="evenodd" fill-opacity="1" /><polyline clip-path="url(#clip342)" style="stroke:#000000; stroke-linecap:round; stroke-linejoin:round; stroke-width:2; stroke-opacity:0.1; fill:none" points="
  252.764,1211.71 2352.76,1211.71 
  "/>
<polyline clip-path="url(#clip342)" style="stroke:#000000; stroke-linecap:round; stroke-linejoin:round; stroke-width:2; stroke-opacity:0.1; fill:none" points="
  252.764,550.073 2352.76,550.073 
  "/>
<polyline clip-path="url(#clip340)" style="stroke:#000000; stroke-linecap:round; stroke-linejoin:round; stroke-width:4; stroke-opacity:1; fill:none" points="
  252.764,1410.9 252.764,47.2441 
  "/>
<polyline clip-path="url(#clip340)" style="stroke:#000000; stroke-linecap:round; stroke-linejoin:round; stroke-width:4; stroke-opacity:1; fill:none" points="
  252.764,1211.71 271.662,1211.71 
  "/>
<polyline clip-path="url(#clip340)" style="stroke:#000000; stroke-linecap:round; stroke-linejoin:round; stroke-width:4; stroke-opacity:1; fill:none" points="
  252.764,550.073 271.662,550.073 
  "/>
<path clip-path="url(#clip340)" d="M114.931 1231.5 L122.57 1231.5 L122.57 1205.14 L114.26 1206.8 L114.26 1202.54 L122.524 1200.88 L127.2 1200.88 L127.2 1231.5 L134.839 1231.5 L134.839 1235.44 L114.931 1235.44 L114.931 1231.5 Z" fill="#000000" fill-rule="evenodd" fill-opacity="1" /><path clip-path="url(#clip340)" d="M154.283 1203.96 Q150.672 1203.96 148.843 1207.52 Q147.038 1211.06 147.038 1218.19 Q147.038 1225.3 148.843 1228.86 Q150.672 1232.41 154.283 1232.41 Q157.917 1232.41 159.723 1228.86 Q161.552 1225.3 161.552 1218.19 Q161.552 1211.06 159.723 1207.52 Q157.917 1203.96 154.283 1203.96 M154.283 1200.25 Q160.093 1200.25 163.149 1204.86 Q166.227 1209.44 166.227 1218.19 Q166.227 1226.92 163.149 1231.53 Q160.093 1236.11 154.283 1236.11 Q148.473 1236.11 145.394 1231.53 Q142.339 1226.92 142.339 1218.19 Q142.339 1209.44 145.394 1204.86 Q148.473 1200.25 154.283 1200.25 Z" fill="#000000" fill-rule="evenodd" fill-opacity="1" /><path clip-path="url(#clip340)" d="M166.227 1194.35 L190.339 1194.35 L190.339 1197.55 L166.227 1197.55 L166.227 1194.35 Z" fill="#000000" fill-rule="evenodd" fill-opacity="1" /><path clip-path="url(#clip340)" d="M208.978 1183.26 L199.386 1198.25 L208.978 1198.25 L208.978 1183.26 M207.981 1179.95 L212.758 1179.95 L212.758 1198.25 L216.764 1198.25 L216.764 1201.41 L212.758 1201.41 L212.758 1208.03 L208.978 1208.03 L208.978 1201.41 L196.301 1201.41 L196.301 1197.74 L207.981 1179.95 Z" fill="#000000" fill-rule="evenodd" fill-opacity="1" /><path clip-path="url(#clip340)" d="M116.624 569.865 L124.263 569.865 L124.263 543.5 L115.953 545.167 L115.953 540.907 L124.217 539.241 L128.893 539.241 L128.893 569.865 L136.531 569.865 L136.531 573.801 L116.624 573.801 L116.624 569.865 Z" fill="#000000" fill-rule="evenodd" fill-opacity="1" /><path clip-path="url(#clip340)" d="M155.976 542.319 Q152.365 542.319 150.536 545.884 Q148.73 549.426 148.73 556.555 Q148.73 563.662 150.536 567.227 Q152.365 570.768 155.976 570.768 Q159.61 570.768 161.416 567.227 Q163.244 563.662 163.244 556.555 Q163.244 549.426 161.416 545.884 Q159.61 542.319 155.976 542.319 M155.976 538.616 Q161.786 538.616 164.841 543.222 Q167.92 547.805 167.92 556.555 Q167.92 565.282 164.841 569.889 Q161.786 574.472 155.976 574.472 Q150.166 574.472 147.087 569.889 Q144.031 565.282 144.031 556.555 Q144.031 547.805 147.087 543.222 Q150.166 538.616 155.976 538.616 Z" fill="#000000" fill-rule="evenodd" fill-opacity="1" /><path clip-path="url(#clip340)" d="M167.92 532.717 L192.032 532.717 L192.032 535.914 L167.92 535.914 L167.92 532.717 Z" fill="#000000" fill-rule="evenodd" fill-opacity="1" /><path clip-path="url(#clip340)" d="M203.504 543.193 L216.764 543.193 L216.764 546.39 L198.934 546.39 L198.934 543.193 Q201.097 540.955 204.821 537.193 Q208.564 533.413 209.523 532.322 Q211.347 530.272 212.062 528.861 Q212.796 527.432 212.796 526.059 Q212.796 523.821 211.216 522.41 Q209.655 521 207.134 521 Q205.348 521 203.354 521.62 Q201.379 522.241 199.122 523.501 L199.122 519.664 Q201.417 518.743 203.41 518.273 Q205.404 517.802 207.059 517.802 Q211.423 517.802 214.018 519.984 Q216.613 522.166 216.613 525.815 Q216.613 527.545 215.955 529.106 Q215.316 530.648 213.604 532.755 Q213.134 533.3 210.614 535.914 Q208.094 538.51 203.504 543.193 Z" fill="#000000" fill-rule="evenodd" fill-opacity="1" /><path clip-path="url(#clip340)" d="M46.0847 1044.83 Q46.0847 1051.92 47.7079 1054.66 Q49.3312 1057.4 53.2461 1057.4 Q56.3653 1057.4 58.2114 1055.36 Q60.0256 1053.29 60.0256 1049.76 Q60.0256 1044.89 56.5881 1041.96 Q53.1188 1039 47.3897 1039 L46.0847 1039 L46.0847 1044.83 M43.6657 1033.14 L64.0042 1033.14 L64.0042 1039 L58.5933 1039 Q61.8398 1041.01 63.3994 1044 Q64.9272 1046.99 64.9272 1051.32 Q64.9272 1056.79 61.8716 1060.04 Q58.7843 1063.25 53.6281 1063.25 Q47.6125 1063.25 44.5569 1059.24 Q41.5014 1055.2 41.5014 1047.21 L41.5014 1039 L40.9285 1039 Q36.8862 1039 34.6901 1041.67 Q32.4621 1044.32 32.4621 1049.12 Q32.4621 1052.18 33.1941 1055.07 Q33.9262 1057.97 35.3903 1060.64 L29.9795 1060.64 Q28.7381 1057.43 28.1334 1054.41 Q27.4968 1051.38 27.4968 1048.52 Q27.4968 1040.78 31.5072 1036.96 Q35.5176 1033.14 43.6657 1033.14 Z" fill="#000000" fill-rule="evenodd" fill-opacity="1" /><path clip-path="url(#clip340)" d="M28.3562 1025.28 L28.3562 1019.08 L58.275 1007.94 L28.3562 996.796 L28.3562 990.59 L64.0042 1003.96 L64.0042 1011.91 L28.3562 1025.28 Z" fill="#000000" fill-rule="evenodd" fill-opacity="1" /><path clip-path="url(#clip340)" d="M44.7161 952.013 L47.5806 952.013 L47.5806 978.94 Q53.6281 978.558 56.8109 975.312 Q59.9619 972.033 59.9619 966.209 Q59.9619 962.835 59.1344 959.684 Q58.3069 956.501 56.6518 953.382 L62.1899 953.382 Q63.5267 956.533 64.227 959.843 Q64.9272 963.153 64.9272 966.559 Q64.9272 975.089 59.9619 980.086 Q54.9967 985.051 46.5303 985.051 Q37.7774 985.051 32.6531 980.341 Q27.4968 975.598 27.4968 967.577 Q27.4968 960.384 32.1438 956.215 Q36.7589 952.013 44.7161 952.013 M42.9973 957.87 Q38.1912 957.933 35.3266 960.575 Q32.4621 963.185 32.4621 967.514 Q32.4621 972.415 35.2312 975.375 Q38.0002 978.304 43.0292 978.749 L42.9973 957.87 Z" fill="#000000" fill-rule="evenodd" fill-opacity="1" /><path clip-path="url(#clip340)" d="M33.8307 921.744 Q33.2578 922.731 33.0032 923.909 Q32.7167 925.055 32.7167 926.455 Q32.7167 931.42 35.9632 934.094 Q39.1779 936.736 45.2253 936.736 L64.0042 936.736 L64.0042 942.624 L28.3562 942.624 L28.3562 936.736 L33.8944 936.736 Q30.6479 934.89 29.0883 931.93 Q27.4968 928.969 27.4968 924.736 Q27.4968 924.132 27.5923 923.399 Q27.656 922.667 27.8151 921.776 L33.8307 921.744 Z" fill="#000000" fill-rule="evenodd" fill-opacity="1" /><path clip-path="url(#clip340)" d="M46.0847 899.401 Q46.0847 906.499 47.7079 909.236 Q49.3312 911.973 53.2461 911.973 Q56.3653 911.973 58.2114 909.936 Q60.0256 907.867 60.0256 904.334 Q60.0256 899.464 56.5881 896.536 Q53.1188 893.576 47.3897 893.576 L46.0847 893.576 L46.0847 899.401 M43.6657 887.72 L64.0042 887.72 L64.0042 893.576 L58.5933 893.576 Q61.8398 895.581 63.3994 898.573 Q64.9272 901.565 64.9272 905.894 Q64.9272 911.368 61.8716 914.615 Q58.7843 917.829 53.6281 917.829 Q47.6125 917.829 44.5569 913.819 Q41.5014 909.777 41.5014 901.788 L41.5014 893.576 L40.9285 893.576 Q36.8862 893.576 34.6901 896.25 Q32.4621 898.892 32.4621 903.698 Q32.4621 906.753 33.1941 909.65 Q33.9262 912.546 35.3903 915.22 L29.9795 915.22 Q28.7381 912.005 28.1334 908.981 Q27.4968 905.957 27.4968 903.093 Q27.4968 895.359 31.5072 891.539 Q35.5176 887.72 43.6657 887.72 Z" fill="#000000" fill-rule="evenodd" fill-opacity="1" /><path clip-path="url(#clip340)" d="M45.7664 852.199 Q39.4007 852.199 35.8996 854.841 Q32.3984 857.451 32.3984 862.193 Q32.3984 866.904 35.8996 869.546 Q39.4007 872.156 45.7664 872.156 Q52.1003 872.156 55.6014 869.546 Q59.1026 866.904 59.1026 862.193 Q59.1026 857.451 55.6014 854.841 Q52.1003 852.199 45.7664 852.199 M59.58 846.343 Q68.683 846.343 73.1071 850.385 Q77.5631 854.427 77.5631 862.766 Q77.5631 865.853 77.0857 868.591 Q76.6401 871.328 75.6852 873.906 L69.9879 873.906 Q71.3884 871.328 72.0568 868.814 Q72.7252 866.299 72.7252 863.689 Q72.7252 857.928 69.7015 855.064 Q66.7096 852.199 60.6303 852.199 L57.7339 852.199 Q60.885 854.013 62.4446 856.846 Q64.0042 859.679 64.0042 863.625 Q64.0042 870.182 59.0071 874.193 Q54.01 878.203 45.7664 878.203 Q37.491 878.203 32.4939 874.193 Q27.4968 870.182 27.4968 863.625 Q27.4968 859.679 29.0564 856.846 Q30.616 854.013 33.7671 852.199 L28.3562 852.199 L28.3562 846.343 L59.58 846.343 Z" fill="#000000" fill-rule="evenodd" fill-opacity="1" /><path clip-path="url(#clip340)" d="M44.7161 803.788 L47.5806 803.788 L47.5806 830.715 Q53.6281 830.333 56.8109 827.086 Q59.9619 823.808 59.9619 817.983 Q59.9619 814.61 59.1344 811.459 Q58.3069 808.276 56.6518 805.156 L62.1899 805.156 Q63.5267 808.308 64.227 811.618 Q64.9272 814.928 64.9272 818.333 Q64.9272 826.864 59.9619 831.861 Q54.9967 836.826 46.5303 836.826 Q37.7774 836.826 32.6531 832.115 Q27.4968 827.373 27.4968 819.352 Q27.4968 812.159 32.1438 807.989 Q36.7589 803.788 44.7161 803.788 M42.9973 809.644 Q38.1912 809.708 35.3266 812.35 Q32.4621 814.96 32.4621 819.288 Q32.4621 824.19 35.2312 827.15 Q38.0002 830.078 43.0292 830.524 L42.9973 809.644 Z" fill="#000000" fill-rule="evenodd" fill-opacity="1" /><path clip-path="url(#clip340)" d="M33.7671 770.718 L14.479 770.718 L14.479 764.862 L64.0042 764.862 L64.0042 770.718 L58.657 770.718 Q61.8398 772.564 63.3994 775.397 Q64.9272 778.198 64.9272 782.144 Q64.9272 788.606 59.771 792.68 Q54.6147 796.722 46.212 796.722 Q37.8093 796.722 32.6531 792.68 Q27.4968 788.606 27.4968 782.144 Q27.4968 778.198 29.0564 775.397 Q30.5842 772.564 33.7671 770.718 M46.212 790.674 Q52.6732 790.674 56.3653 788.033 Q60.0256 785.359 60.0256 780.712 Q60.0256 776.065 56.3653 773.392 Q52.6732 770.718 46.212 770.718 Q39.7508 770.718 36.0905 773.392 Q32.3984 776.065 32.3984 780.712 Q32.3984 785.359 36.0905 788.033 Q39.7508 790.674 46.212 790.674 Z" fill="#000000" fill-rule="evenodd" fill-opacity="1" /><path clip-path="url(#clip340)" d="M44.7161 701.586 L47.5806 701.586 L47.5806 728.513 Q53.6281 728.131 56.8109 724.885 Q59.9619 721.607 59.9619 715.782 Q59.9619 712.408 59.1344 709.257 Q58.3069 706.074 56.6518 702.955 L62.1899 702.955 Q63.5267 706.106 64.227 709.416 Q64.9272 712.726 64.9272 716.132 Q64.9272 724.662 59.9619 729.659 Q54.9967 734.624 46.5303 734.624 Q37.7774 734.624 32.6531 729.914 Q27.4968 725.171 27.4968 717.151 Q27.4968 709.957 32.1438 705.788 Q36.7589 701.586 44.7161 701.586 M42.9973 707.443 Q38.1912 707.507 35.3266 710.148 Q32.4621 712.758 32.4621 717.087 Q32.4621 721.989 35.2312 724.949 Q38.0002 727.877 43.0292 728.322 L42.9973 707.443 Z" fill="#000000" fill-rule="evenodd" fill-opacity="1" /><path clip-path="url(#clip340)" d="M33.8307 671.317 Q33.2578 672.304 33.0032 673.482 Q32.7167 674.628 32.7167 676.028 Q32.7167 680.993 35.9632 683.667 Q39.1779 686.309 45.2253 686.309 L64.0042 686.309 L64.0042 692.197 L28.3562 692.197 L28.3562 686.309 L33.8944 686.309 Q30.6479 684.463 29.0883 681.503 Q27.4968 678.543 27.4968 674.309 Q27.4968 673.705 27.5923 672.973 Q27.656 672.241 27.8151 671.349 L33.8307 671.317 Z" fill="#000000" fill-rule="evenodd" fill-opacity="1" /><path clip-path="url(#clip340)" d="M33.8307 645.664 Q33.2578 646.65 33.0032 647.828 Q32.7167 648.974 32.7167 650.374 Q32.7167 655.34 35.9632 658.013 Q39.1779 660.655 45.2253 660.655 L64.0042 660.655 L64.0042 666.543 L28.3562 666.543 L28.3562 660.655 L33.8944 660.655 Q30.6479 658.809 29.0883 655.849 Q27.4968 652.889 27.4968 648.656 Q27.4968 648.051 27.5923 647.319 Q27.656 646.587 27.8151 645.696 L33.8307 645.664 Z" fill="#000000" fill-rule="evenodd" fill-opacity="1" /><path clip-path="url(#clip340)" d="M32.4621 627.139 Q32.4621 631.85 36.1542 634.587 Q39.8145 637.325 46.212 637.325 Q52.6095 637.325 56.3017 634.619 Q59.9619 631.882 59.9619 627.139 Q59.9619 622.461 56.2698 619.723 Q52.5777 616.986 46.212 616.986 Q39.8781 616.986 36.186 619.723 Q32.4621 622.461 32.4621 627.139 M27.4968 627.139 Q27.4968 619.501 32.4621 615.14 Q37.4273 610.78 46.212 610.78 Q54.9649 610.78 59.9619 615.14 Q64.9272 619.501 64.9272 627.139 Q64.9272 634.81 59.9619 639.171 Q54.9649 643.499 46.212 643.499 Q37.4273 643.499 32.4621 639.171 Q27.4968 634.81 27.4968 627.139 Z" fill="#000000" fill-rule="evenodd" fill-opacity="1" /><path clip-path="url(#clip340)" d="M33.8307 580.415 Q33.2578 581.402 33.0032 582.58 Q32.7167 583.725 32.7167 585.126 Q32.7167 590.091 35.9632 592.765 Q39.1779 595.406 45.2253 595.406 L64.0042 595.406 L64.0042 601.295 L28.3562 601.295 L28.3562 595.406 L33.8944 595.406 Q30.6479 593.56 29.0883 590.6 Q27.4968 587.64 27.4968 583.407 Q27.4968 582.802 27.5923 582.07 Q27.656 581.338 27.8151 580.447 L33.8307 580.415 Z" fill="#000000" fill-rule="evenodd" fill-opacity="1" /><path clip-path="url(#clip340)" d="M42.4881 523.92 L64.0042 523.92 L64.0042 529.776 L42.679 529.776 Q37.6183 529.776 35.1038 531.749 Q32.5894 533.723 32.5894 537.669 Q32.5894 542.412 35.6131 545.149 Q38.6368 547.886 43.8567 547.886 L64.0042 547.886 L64.0042 553.775 L28.3562 553.775 L28.3562 547.886 L33.8944 547.886 Q30.6797 545.786 29.0883 542.953 Q27.4968 540.088 27.4968 536.365 Q27.4968 530.222 31.3163 527.071 Q35.1038 523.92 42.4881 523.92 Z" fill="#000000" fill-rule="evenodd" fill-opacity="1" /><path clip-path="url(#clip340)" d="M32.4621 498.425 Q32.4621 503.136 36.1542 505.873 Q39.8145 508.61 46.212 508.61 Q52.6095 508.61 56.3017 505.905 Q59.9619 503.167 59.9619 498.425 Q59.9619 493.746 56.2698 491.009 Q52.5777 488.272 46.212 488.272 Q39.8781 488.272 36.186 491.009 Q32.4621 493.746 32.4621 498.425 M27.4968 498.425 Q27.4968 490.786 32.4621 486.426 Q37.4273 482.065 46.212 482.065 Q54.9649 482.065 59.9619 486.426 Q64.9272 490.786 64.9272 498.425 Q64.9272 506.096 59.9619 510.456 Q54.9649 514.785 46.212 514.785 Q37.4273 514.785 32.4621 510.456 Q27.4968 506.096 27.4968 498.425 Z" fill="#000000" fill-rule="evenodd" fill-opacity="1" /><path clip-path="url(#clip340)" d="M33.8307 451.701 Q33.2578 452.687 33.0032 453.865 Q32.7167 455.011 32.7167 456.411 Q32.7167 461.376 35.9632 464.05 Q39.1779 466.692 45.2253 466.692 L64.0042 466.692 L64.0042 472.58 L28.3562 472.58 L28.3562 466.692 L33.8944 466.692 Q30.6479 464.846 29.0883 461.886 Q27.4968 458.926 27.4968 454.692 Q27.4968 454.088 27.5923 453.356 Q27.656 452.624 27.8151 451.732 L33.8307 451.701 Z" fill="#000000" fill-rule="evenodd" fill-opacity="1" /><path clip-path="url(#clip340)" d="M35.1993 418.949 Q31.2526 416.753 29.3747 413.697 Q27.4968 410.642 27.4968 406.504 Q27.4968 400.934 31.4117 397.91 Q35.2948 394.887 42.4881 394.887 L64.0042 394.887 L64.0042 400.775 L42.679 400.775 Q37.5546 400.775 35.072 402.589 Q32.5894 404.403 32.5894 408.127 Q32.5894 412.679 35.6131 415.321 Q38.6368 417.962 43.8567 417.962 L64.0042 417.962 L64.0042 423.851 L42.679 423.851 Q37.5228 423.851 35.072 425.665 Q32.5894 427.479 32.5894 431.267 Q32.5894 435.755 35.6449 438.396 Q38.6686 441.038 43.8567 441.038 L64.0042 441.038 L64.0042 446.926 L28.3562 446.926 L28.3562 441.038 L33.8944 441.038 Q30.616 439.033 29.0564 436.232 Q27.4968 433.431 27.4968 429.58 Q27.4968 425.697 29.4702 422.991 Q31.4436 420.254 35.1993 418.949 Z" fill="#000000" fill-rule="evenodd" fill-opacity="1" /><polyline clip-path="url(#clip342)" style="stroke:#009af9; stroke-linecap:round; stroke-linejoin:round; stroke-width:4; stroke-opacity:1; fill:none" points="
  2293.32,85.838 2152.49,121.236 1911.74,248.426 1352.72,747.621 1111.97,936.4 552.952,1281.73 312.198,1295.21 
  "/>
<line clip-path="url(#clip342)" x1="2293.32" y1="85.838" x2="2293.32" y2="69.838" style="stroke:#009af9; stroke-width:3.2; stroke-opacity:1"/>
<line clip-path="url(#clip342)" x1="2293.32" y1="85.838" x2="2277.32" y2="85.838" style="stroke:#009af9; stroke-width:3.2; stroke-opacity:1"/>
<line clip-path="url(#clip342)" x1="2293.32" y1="85.838" x2="2293.32" y2="101.838" style="stroke:#009af9; stroke-width:3.2; stroke-opacity:1"/>
<line clip-path="url(#clip342)" x1="2293.32" y1="85.838" x2="2309.32" y2="85.838" style="stroke:#009af9; stroke-width:3.2; stroke-opacity:1"/>
<line clip-path="url(#clip342)" x1="2152.49" y1="121.236" x2="2152.49" y2="105.236" style="stroke:#009af9; stroke-width:3.2; stroke-opacity:1"/>
<line clip-path="url(#clip342)" x1="2152.49" y1="121.236" x2="2136.49" y2="121.236" style="stroke:#009af9; stroke-width:3.2; stroke-opacity:1"/>
<line clip-path="url(#clip342)" x1="2152.49" y1="121.236" x2="2152.49" y2="137.236" style="stroke:#009af9; stroke-width:3.2; stroke-opacity:1"/>
<line clip-path="url(#clip342)" x1="2152.49" y1="121.236" x2="2168.49" y2="121.236" style="stroke:#009af9; stroke-width:3.2; stroke-opacity:1"/>
<line clip-path="url(#clip342)" x1="1911.74" y1="248.426" x2="1911.74" y2="232.426" style="stroke:#009af9; stroke-width:3.2; stroke-opacity:1"/>
<line clip-path="url(#clip342)" x1="1911.74" y1="248.426" x2="1895.74" y2="248.426" style="stroke:#009af9; stroke-width:3.2; stroke-opacity:1"/>
<line clip-path="url(#clip342)" x1="1911.74" y1="248.426" x2="1911.74" y2="264.426" style="stroke:#009af9; stroke-width:3.2; stroke-opacity:1"/>
<line clip-path="url(#clip342)" x1="1911.74" y1="248.426" x2="1927.74" y2="248.426" style="stroke:#009af9; stroke-width:3.2; stroke-opacity:1"/>
<line clip-path="url(#clip342)" x1="1352.72" y1="747.621" x2="1352.72" y2="731.621" style="stroke:#009af9; stroke-width:3.2; stroke-opacity:1"/>
<line clip-path="url(#clip342)" x1="1352.72" y1="747.621" x2="1336.72" y2="747.621" style="stroke:#009af9; stroke-width:3.2; stroke-opacity:1"/>
<line clip-path="url(#clip342)" x1="1352.72" y1="747.621" x2="1352.72" y2="763.621" style="stroke:#009af9; stroke-width:3.2; stroke-opacity:1"/>
<line clip-path="url(#clip342)" x1="1352.72" y1="747.621" x2="1368.72" y2="747.621" style="stroke:#009af9; stroke-width:3.2; stroke-opacity:1"/>
<line clip-path="url(#clip342)" x1="1111.97" y1="936.4" x2="1111.97" y2="920.4" style="stroke:#009af9; stroke-width:3.2; stroke-opacity:1"/>
<line clip-path="url(#clip342)" x1="1111.97" y1="936.4" x2="1095.97" y2="936.4" style="stroke:#009af9; stroke-width:3.2; stroke-opacity:1"/>
<line clip-path="url(#clip342)" x1="1111.97" y1="936.4" x2="1111.97" y2="952.4" style="stroke:#009af9; stroke-width:3.2; stroke-opacity:1"/>
<line clip-path="url(#clip342)" x1="1111.97" y1="936.4" x2="1127.97" y2="936.4" style="stroke:#009af9; stroke-width:3.2; stroke-opacity:1"/>
<line clip-path="url(#clip342)" x1="552.952" y1="1281.73" x2="552.952" y2="1265.73" style="stroke:#009af9; stroke-width:3.2; stroke-opacity:1"/>
<line clip-path="url(#clip342)" x1="552.952" y1="1281.73" x2="536.952" y2="1281.73" style="stroke:#009af9; stroke-width:3.2; stroke-opacity:1"/>
<line clip-path="url(#clip342)" x1="552.952" y1="1281.73" x2="552.952" y2="1297.73" style="stroke:#009af9; stroke-width:3.2; stroke-opacity:1"/>
<line clip-path="url(#clip342)" x1="552.952" y1="1281.73" x2="568.952" y2="1281.73" style="stroke:#009af9; stroke-width:3.2; stroke-opacity:1"/>
<line clip-path="url(#clip342)" x1="312.198" y1="1295.21" x2="312.198" y2="1279.21" style="stroke:#009af9; stroke-width:3.2; stroke-opacity:1"/>
<line clip-path="url(#clip342)" x1="312.198" y1="1295.21" x2="296.198" y2="1295.21" style="stroke:#009af9; stroke-width:3.2; stroke-opacity:1"/>
<line clip-path="url(#clip342)" x1="312.198" y1="1295.21" x2="312.198" y2="1311.21" style="stroke:#009af9; stroke-width:3.2; stroke-opacity:1"/>
<line clip-path="url(#clip342)" x1="312.198" y1="1295.21" x2="328.198" y2="1295.21" style="stroke:#009af9; stroke-width:3.2; stroke-opacity:1"/>
<polyline clip-path="url(#clip342)" style="stroke:#e26f46; stroke-linecap:round; stroke-linejoin:round; stroke-width:4; stroke-opacity:1; fill:none" points="
  2293.32,182.404 2152.49,255.109 1911.74,331.641 1352.72,839.927 1111.97,1025.67 552.952,1360.21 312.198,1372.3 
  "/>
<circle clip-path="url(#clip342)" cx="2293.32" cy="182.404" r="14.4" fill="#e26f46" fill-rule="evenodd" fill-opacity="1" stroke="#000000" stroke-opacity="1" stroke-width="3.2"/>
<circle clip-path="url(#clip342)" cx="2152.49" cy="255.109" r="14.4" fill="#e26f46" fill-rule="evenodd" fill-opacity="1" stroke="#000000" stroke-opacity="1" stroke-width="3.2"/>
<circle clip-path="url(#clip342)" cx="1911.74" cy="331.641" r="14.4" fill="#e26f46" fill-rule="evenodd" fill-opacity="1" stroke="#000000" stroke-opacity="1" stroke-width="3.2"/>
<circle clip-path="url(#clip342)" cx="1352.72" cy="839.927" r="14.4" fill="#e26f46" fill-rule="evenodd" fill-opacity="1" stroke="#000000" stroke-opacity="1" stroke-width="3.2"/>
<circle clip-path="url(#clip342)" cx="1111.97" cy="1025.67" r="14.4" fill="#e26f46" fill-rule="evenodd" fill-opacity="1" stroke="#000000" stroke-opacity="1" stroke-width="3.2"/>
<circle clip-path="url(#clip342)" cx="552.952" cy="1360.21" r="14.4" fill="#e26f46" fill-rule="evenodd" fill-opacity="1" stroke="#000000" stroke-opacity="1" stroke-width="3.2"/>
<circle clip-path="url(#clip342)" cx="312.198" cy="1372.3" r="14.4" fill="#e26f46" fill-rule="evenodd" fill-opacity="1" stroke="#000000" stroke-opacity="1" stroke-width="3.2"/>
<path clip-path="url(#clip340)" d="
M322.764 248.219 L657.739 248.219 L657.739 92.6992 L322.764 92.6992  Z
  " fill="#ffffff" fill-rule="evenodd" fill-opacity="1"/>
<polyline clip-path="url(#clip340)" style="stroke:#000000; stroke-linecap:round; stroke-linejoin:round; stroke-width:4; stroke-opacity:1; fill:none" points="
  322.764,248.219 657.739,248.219 657.739,92.6992 322.764,92.6992 322.764,248.219 
  "/>
<polyline clip-path="url(#clip340)" style="stroke:#009af9; stroke-linecap:round; stroke-linejoin:round; stroke-width:4; stroke-opacity:1; fill:none" points="
  346.097,144.539 486.096,144.539 
  "/>
<line clip-path="url(#clip340)" x1="416.097" y1="144.539" x2="416.097" y2="122.934" style="stroke:#009af9; stroke-width:5.12; stroke-opacity:1"/>
<line clip-path="url(#clip340)" x1="416.097" y1="144.539" x2="394.492" y2="144.539" style="stroke:#009af9; stroke-width:5.12; stroke-opacity:1"/>
<line clip-path="url(#clip340)" x1="416.097" y1="144.539" x2="416.097" y2="166.144" style="stroke:#009af9; stroke-width:5.12; stroke-opacity:1"/>
<line clip-path="url(#clip340)" x1="416.097" y1="144.539" x2="437.702" y2="144.539" style="stroke:#009af9; stroke-width:5.12; stroke-opacity:1"/>
<path clip-path="url(#clip340)" d="M509.43 127.259 L514.106 127.259 L514.106 157.884 L530.934 157.884 L530.934 161.819 L509.43 161.819 L509.43 127.259 Z" fill="#000000" fill-rule="evenodd" fill-opacity="1" /><path clip-path="url(#clip340)" d="M540.286 157.884 L556.605 157.884 L556.605 161.819 L534.661 161.819 L534.661 157.884 Q537.323 155.129 541.906 150.5 Q546.513 145.847 547.693 144.504 Q549.939 141.981 550.818 140.245 Q551.721 138.486 551.721 136.796 Q551.721 134.042 549.777 132.305 Q547.855 130.569 544.754 130.569 Q542.554 130.569 540.101 131.333 Q537.67 132.097 534.892 133.648 L534.892 128.926 Q537.717 127.792 540.17 127.213 Q542.624 126.634 544.661 126.634 Q550.031 126.634 553.226 129.319 Q556.42 132.005 556.42 136.495 Q556.42 138.625 555.61 140.546 Q554.823 142.444 552.716 145.037 Q552.138 145.708 549.036 148.926 Q545.934 152.12 540.286 157.884 Z" fill="#000000" fill-rule="evenodd" fill-opacity="1" /><path clip-path="url(#clip340)" d="M585.517 169.69 L585.517 173 L560.888 173 L560.888 169.69 L585.517 169.69 Z" fill="#000000" fill-rule="evenodd" fill-opacity="1" /><path clip-path="url(#clip340)" d="M589.082 151.588 L589.082 135.893 L593.341 135.893 L593.341 151.426 Q593.341 155.106 594.776 156.958 Q596.212 158.787 599.082 158.787 Q602.531 158.787 604.522 156.588 Q606.536 154.389 606.536 150.592 L606.536 135.893 L610.795 135.893 L610.795 161.819 L606.536 161.819 L606.536 157.838 Q604.985 160.199 602.925 161.356 Q600.887 162.49 598.179 162.49 Q593.712 162.49 591.397 159.713 Q589.082 156.935 589.082 151.588 M599.8 135.268 L599.8 135.268 Z" fill="#000000" fill-rule="evenodd" fill-opacity="1" /><polyline clip-path="url(#clip340)" style="stroke:#e26f46; stroke-linecap:round; stroke-linejoin:round; stroke-width:4; stroke-opacity:1; fill:none" points="
  346.097,196.379 486.096,196.379 
  "/>
<circle clip-path="url(#clip340)" cx="416.097" cy="196.379" r="19.4444" fill="#e26f46" fill-rule="evenodd" fill-opacity="1" stroke="#000000" stroke-opacity="1" stroke-width="5.12"/>
<path clip-path="url(#clip340)" d="M509.43 179.099 L514.106 179.099 L514.106 209.724 L530.934 209.724 L530.934 213.659 L509.43 213.659 L509.43 179.099 Z" fill="#000000" fill-rule="evenodd" fill-opacity="1" /><path clip-path="url(#clip340)" d="M540.286 209.724 L556.605 209.724 L556.605 213.659 L534.661 213.659 L534.661 209.724 Q537.323 206.969 541.906 202.34 Q546.513 197.687 547.693 196.344 Q549.939 193.821 550.818 192.085 Q551.721 190.326 551.721 188.636 Q551.721 185.882 549.777 184.145 Q547.855 182.409 544.754 182.409 Q542.554 182.409 540.101 183.173 Q537.67 183.937 534.892 185.488 L534.892 180.766 Q537.717 179.632 540.17 179.053 Q542.624 178.474 544.661 178.474 Q550.031 178.474 553.226 181.159 Q556.42 183.845 556.42 188.335 Q556.42 190.465 555.61 192.386 Q554.823 194.284 552.716 196.877 Q552.138 197.548 549.036 200.766 Q545.934 203.96 540.286 209.724 Z" fill="#000000" fill-rule="evenodd" fill-opacity="1" /><path clip-path="url(#clip340)" d="M585.517 221.53 L585.517 224.84 L560.888 224.84 L560.888 221.53 L585.517 221.53 Z" fill="#000000" fill-rule="evenodd" fill-opacity="1" /><path clip-path="url(#clip340)" d="M611.073 198.011 L611.073 213.659 L606.813 213.659 L606.813 198.15 Q606.813 194.469 605.378 192.641 Q603.943 190.812 601.073 190.812 Q597.624 190.812 595.633 193.011 Q593.642 195.21 593.642 199.006 L593.642 213.659 L589.36 213.659 L589.36 177.641 L593.642 177.641 L593.642 191.761 Q595.17 189.423 597.23 188.266 Q599.313 187.108 602.022 187.108 Q606.489 187.108 608.781 189.886 Q611.073 192.641 611.073 198.011 Z" fill="#000000" fill-rule="evenodd" fill-opacity="1" /></svg>
